<?xml version="1.0" standalone="no"?>
<!DOCTYPE svg PUBLIC "-//W3C//DTD SVG 20010904//EN"
 "http://www.w3.org/TR/2001/REC-SVG-20010904/DTD/svg10.dtd">
<svg version="1.0" xmlns="http://www.w3.org/2000/svg"
 width="505.000000pt" height="505.000000pt" viewBox="0 0 505.000000 505.000000"
 preserveAspectRatio="xMidYMid meet">
<metadata>
Created by potrace 1.14, written by Peter Selinger 2001-2017
</metadata>
<g transform="translate(0.000000,505.000000) scale(0.100000,-0.100000)"
fill="#000000" stroke="none">
<path d="M2387 5025 c-55 -19 -78 -34 -110 -71 -23 -26 -42 -52 -43 -58 -1 -6
-6 -42 -12 -81 -17 -104 -5 -139 65 -203 32 -30 81 -65 108 -79 28 -14 73 -44
100 -66 97 -80 235 -209 230 -217 -2 -4 -22 -5 -42 -1 -62 10 -233 4 -408 -14
-56 -6 -285 -51 -371 -74 l-71 -18 -194 72 c-122 45 -270 110 -399 176 -335
170 -321 164 -374 149 -26 -7 -46 -19 -46 -26 0 -8 -4 -22 -10 -32 -22 -39
-53 -118 -56 -142 -15 -121 -19 -354 -11 -616 l6 -191 -31 -29 c-58 -56 -176
-203 -241 -301 -217 -329 -373 -770 -437 -1238 -6 -44 -13 -94 -15 -111 -19
-139 -27 -515 -13 -627 19 -142 75 -304 148 -429 61 -102 133 -185 254 -292
72 -63 263 -175 396 -231 151 -64 453 -153 580 -170 25 -3 61 -10 80 -15 19
-5 60 -12 90 -15 30 -4 57 -8 60 -10 3 -2 42 -7 85 -10 44 -4 88 -9 98 -11 18
-3 81 -9 197 -19 255 -20 961 -27 1180 -11 324 23 542 58 764 122 636 182 983
562 1080 1179 30 192 28 653 -5 845 -6 36 -12 77 -14 92 -9 67 -61 263 -96
363 -71 199 -198 434 -318 585 -67 84 -103 125 -201 225 l-98 100 -5 385 c-3
212 -8 394 -10 405 -3 11 -6 32 -6 47 -1 25 -94 162 -116 171 -12 5 -203 -48
-229 -64 -10 -6 -35 -20 -55 -31 -20 -11 -85 -49 -144 -85 -66 -39 -125 -66
-150 -70 -23 -3 -59 -12 -80 -19 -22 -8 -45 -14 -51 -14 -7 0 -23 26 -35 58
-51 124 -123 260 -168 312 -149 174 -356 332 -503 382 -91 32 -114 36 -210 42
-61 4 -87 0 -143 -19z"/>
</g>
</svg>
